<?xml version="1.0" encoding="UTF-8" standalone="no"?>
<svg
   xmlns:dc="http://purl.org/dc/elements/1.1/"
   xmlns:cc="http://creativecommons.org/ns#"
   xmlns:rdf="http://www.w3.org/1999/02/22-rdf-syntax-ns#"
   xmlns:svg="http://www.w3.org/2000/svg"
   xmlns="http://www.w3.org/2000/svg"
   xmlns:sodipodi="http://sodipodi.sourceforge.net/DTD/sodipodi-0.dtd"
   xmlns:inkscape="http://www.inkscape.org/namespaces/inkscape"
   id="Icons"
   viewBox="0 0 28 25"
   version="1.1"
   sodipodi:docname="dude1Icon.svg"
   inkscape:version="1.0.1 (1.0.1+r73)">
  <metadata
     id="metadata19">
    <rdf:RDF>
      <cc:Work
         rdf:about="">
        <dc:format>image/svg+xml</dc:format>
        <dc:type
           rdf:resource="http://purl.org/dc/dcmitype/StillImage" />
      </cc:Work>
    </rdf:RDF>
  </metadata>
  <sodipodi:namedview
     pagecolor="#ffffff"
     bordercolor="#666666"
     borderopacity="1"
     objecttolerance="10"
     gridtolerance="10"
     guidetolerance="10"
     inkscape:pageopacity="0"
     inkscape:pageshadow="2"
     inkscape:window-width="1920"
     inkscape:window-height="1016"
     id="namedview17"
     showgrid="false"
     inkscape:zoom="34.48"
     inkscape:cx="13.347448"
     inkscape:cy="12.5"
     inkscape:window-x="0"
     inkscape:window-y="27"
     inkscape:window-maximized="1"
     inkscape:current-layer="dudeIcon" />
  <defs
     id="defs4">
    <style
       id="style2">.cls-1{fill:#c6c6c6;}.cls-2{fill:none;stroke:#c6c6c6;}</style>
  </defs>
  <g
     id="dudeIcon">
    <path
       class="cls-1"
       d="M11.78,19.07c.41-.11.82-.21,1.24-.3l.62-.13.62-.12c.21,0,.41-.1.62-.15a2.25,2.25,0,0,1,.63-.06,3.55,3.55,0,0,1,.64.06,2.84,2.84,0,0,1,.65.2v.09a2.75,2.75,0,0,1-.61.32,4.76,4.76,0,0,1-.61.19,2.69,2.69,0,0,1-.63.06l-.64,0H13.06c-.43,0-.85,0-1.27-.05Z"
       id="path6"
       style="fill:#ffffff;fill-opacity:1" />
    <path
       id="dudeOutline"
       class="cls-1"
       d="M28,10.62a1.87,1.87,0,0,0-.76-1.46.86.86,0,0,0,.15-.45l.05-1.8a.79.79,0,0,0-.29-.64.89.89,0,0,0,.28-.85L27,3.67a.7.7,0,0,0-.22-.37C26.59.65,22.93-.09,21,0s-6.88.61-6.88.61S9.18.1,7.2,0,1.57.65,1.38,3.3a.75.75,0,0,0-.21.37L.73,5.42A.87.87,0,0,0,1,6.27a.79.79,0,0,0-.29.64l.05,1.8a.94.94,0,0,0,.11.37A1.85,1.85,0,0,0,0,10.62a1.91,1.91,0,0,0,1,1.64.81.81,0,0,0-.13.44L1,14.45a.78.78,0,0,0,.37.65.39.39,0,0,0-.07.26l.06,2.28a.53.53,0,0,0,.13.31l.07,2.36a.3.3,0,0,0,.3.3H2a.29.29,0,0,0,.29-.3L2.18,18a.55.55,0,0,0,.12-.33l-.07-2.28a.47.47,0,0,0-.08-.26.74.74,0,0,0,.33-.65l0-1.31.16,1.37.08,3.16a5.51,5.51,0,0,0,.07.71l0,4.49L3,19.21l.12.3.06,2.22a.36.36,0,0,0,.09.23l.06,2.31a.28.28,0,0,0,.28.27.27.27,0,0,0,.27-.27L3.81,22a.32.32,0,0,0,.09-.25l0-1a4.44,4.44,0,0,0,.37.38L4.52,25l.21-3.53a4.71,4.71,0,0,0,1.93.83,5.24,5.24,0,0,0,1.26.16H20.24a5.32,5.32,0,0,0,1.27-.16,4.83,4.83,0,0,0,1.93-.83l.2,3.53.27-3.92a4.44,4.44,0,0,0,.37-.38l0,1a.32.32,0,0,0,.09.25l-.06,2.29a.27.27,0,0,0,.27.27.28.28,0,0,0,.28-.27L24.9,22a.36.36,0,0,0,.09-.23l.06-2.22.12-.3.2,3.66,0-4.49a4.17,4.17,0,0,0,.07-.71l.09-3.16.15-1.37,0,1.31a.74.74,0,0,0,.33.65.47.47,0,0,0-.08.26l-.07,2.28A.53.53,0,0,0,26,18l-.06,2.35a.28.28,0,0,0,.29.29h.13a.3.3,0,0,0,.31-.29L26.72,18a.51.51,0,0,0,.13-.31l.06-2.28a.48.48,0,0,0-.07-.26.78.78,0,0,0,.37-.65l.06-1.75a.79.79,0,0,0-.16-.48.35.35,0,0,0,.05-.08A1.84,1.84,0,0,0,28,10.62ZM2.26,12.22l.07-.12,0,.28A.86.86,0,0,0,2.26,12.22Zm23.47-4-.87,10.08c-.18,2.15-2.34,3.84-4.79,3.81l-6-.07-6,.07c-2.44,0-4.6-1.66-4.79-3.81L2.43,8.23A4.48,4.48,0,0,1,7.16,3.48l6.92-1,6.91,1A4.49,4.49,0,0,1,25.73,8.23Z"
       style="fill:#ffffff;fill-opacity:1" />
    <path
       class="cls-2"
       d="M13.5,11.31A3.59,3.59,0,1,1,9.92,7.64,3.63,3.63,0,0,1,13.5,11.31Z"
       id="path9"
       style="stroke:#ffffff;stroke-opacity:1" />
    <path
       class="cls-2"
       d="M22.83,11.31a3.58,3.58,0,1,1-3.58-3.67A3.63,3.63,0,0,1,22.83,11.31Z"
       id="path11"
       style="stroke:#ffffff;stroke-opacity:1" />
    <rect
       class="cls-1"
       x="14"
       y="10.71"
       width="1.17"
       height="1.19"
       id="rect13"
       style="fill:#ffffff;fill-opacity:1" />
  </g>
</svg>
